# xmcd
#
# Track frame offsets:
#	150
#	20905
#	38150
#	51082
#	62837
#	77417
#	121142
#	140217
#	152140
#	173717
#	194487
#	213385
#	233522
#	253055
#	269400
#	287440
#	303692
#	317262
#
# Disc length: 4463
#
# Revision: 1
# Processed by: cddbd v1.5.2PL0 Copyright (c) Steve Scherf et al.
# Submitted via: CDex 1.51
# Normalized: r0:DSETVAR1,TDELIM( - )
#
DISCID=01116d12
DTITLE=Various Artist - SINGLES 3
DYEAR=1993
DGENRE=Rock
TTITLE0=CARPENTERS - (They Long To Be) CLOSE TO YOU
TTITLE1=CARPENTERS - SUPERSTAR
TTITLE2=CARPENTERS - PLEASE MR. POSTMAN
TTITLE3=SERGIO MENDES and BRASIL '66 - MAIS QUE NADA (MA-SH KAY NADA)
TTITLE4=SERGIO MENDES and BRASIL '66 - FOOL ON THE HILL
TTITLE5=CHUCK MANGIONE - FEELS SO GOOD
TTITLE6=JOE COCKER - THE LETTER
TTITLE7=BILLY PRESTON - NOTHING FROM NOTHING
TTITLE8=THE BROTHERS JOHNSON - I'LL BE GOOD TO YOU
TTITLE9=PETER FRAMPTON - SHOW ME THE WAY
TTITLE10=PETER FRAMPTON - I'M IN YOU
TTITLE11=STYX - BABE
TTITLE12=STYX - THE BEST OF TIMES
TTITLE13=GINO VANNELLI - I JUST WANNA STOP
TTITLE14=RITA COOLIDGE - (Your Love Has Lifted Me) HIGHER AND HIGHER
TTITLE15=RITA COOLIDGE - WE'RE ALL ALONE
TTITLE16=CARPENTERS - TOP OF THE WORLD
TTITLE17=CARPENTERS - YESTERDAY ONCE MORE
EXTD=YEAR: 1993
EXTT0=
EXTT1=
EXTT2=
EXTT3=
EXTT4=
EXTT5=
EXTT6=
EXTT7=
EXTT8=
EXTT9=
EXTT10=
EXTT11=
EXTT12=
EXTT13=
EXTT14=
EXTT15=
EXTT16=
EXTT17=
PLAYORDER=
